<svg width="2001" height="567" viewBox="0 0 2001 567" fill="none" xmlns="http://www.w3.org/2000/svg">
<g clip-path="url(#clip0_13_96)">
<path fill-rule="evenodd" clip-rule="evenodd" d="M561.727 561.727V0H469.569V368.479L408.677 162.819H312.943V561.464H405.102V342.419L469.569 561.727H470.784H561.727ZM0 560.893H93.036V463.249H0V560.893ZM157.064 328.698V560.893H249.222V328.698H157.064ZM1009.02 164.79V90.4892H1098.28V164.79H1009.02ZM1009.02 561.727V187.729H1098.28V561.727H1009.02ZM1388 164.791V90.4896H1477.26V164.791H1388ZM1388 561.728V187.729H1477.26V561.728H1388ZM1799.9 556.242C1810.04 562.558 1823.75 565.716 1841.04 565.716C1856.66 565.716 1868.55 561.81 1876.69 553.998C1885.01 546.185 1891.65 535.547 1896.64 522.083V561.727H1987.4V122.902H1896.64V227.622C1891.32 213.826 1883.76 203.104 1873.95 195.458C1864.31 187.646 1850.43 183.739 1832.31 183.739C1807.88 183.739 1790.51 192.632 1780.2 210.418C1770.06 228.204 1764.99 251.475 1764.99 280.231V442.796C1764.99 459.916 1765.74 475.957 1767.24 490.917C1768.9 505.877 1772.22 518.925 1777.21 530.062C1782.2 541.199 1789.76 549.925 1799.9 556.242ZM1892.15 485.681C1889.33 492.496 1883.68 495.903 1875.2 495.903C1860.9 495.903 1853.76 480.279 1853.76 449.029V291.7C1853.76 282.059 1855 273.167 1857.5 265.022C1859.99 256.877 1866.06 252.804 1875.7 252.804C1884.51 252.804 1890.16 257.126 1892.65 265.77C1895.31 274.247 1896.64 282.891 1896.64 291.7V449.029C1896.64 466.648 1895.14 478.866 1892.15 485.681ZM1512.67 187.729V561.727H1601.93V298.681C1601.93 291.7 1602.34 284.719 1603.17 277.738C1604 270.59 1606 264.689 1609.16 260.035C1612.48 255.215 1617.55 252.804 1624.37 252.804C1631.68 252.804 1636.83 255.963 1639.83 262.279C1642.82 268.429 1644.31 275.161 1644.31 282.475V561.727H1732.33V273.25C1732.33 245.491 1726.43 223.632 1714.63 207.675C1702.99 191.718 1684.21 183.739 1658.28 183.739C1642.15 183.739 1629.52 188.809 1620.38 198.949C1611.4 208.922 1605.25 221.056 1601.93 235.351V187.729H1512.67ZM1135.18 122.902V561.727H1222.45V362.76H1263.84V561.727H1351.11V122.902H1263.84V279.732H1222.45V122.902H1135.18ZM881.354 548.75C889.832 558.89 906.121 563.96 930.223 563.96C941.028 563.96 951.666 562.962 962.138 560.968C972.61 559.139 978.843 557.893 980.838 557.228V496.391C977.68 497.056 974.106 497.388 970.117 497.388C964.465 497.388 960.642 496.141 958.647 493.648C956.653 491.155 955.655 486.833 955.655 480.683V268.501H980.838V200.433H955.655V121.146H868.888V200.433H843.705V268.501H868.888V501.627C868.888 522.737 873.043 538.445 881.354 548.75ZM708.821 565.716C682.225 565.716 661.032 560.73 645.241 550.756C629.45 540.783 618.147 526.405 611.332 507.622C604.517 488.839 601.109 466.233 601.109 439.803V289.456C601.109 254.716 611.082 228.453 631.029 210.667C650.976 192.715 678.402 183.739 713.309 183.739C785.116 183.739 821.02 218.978 821.02 289.456V316.633C821.02 349.545 820.688 371.653 820.023 382.956H690.37V455.262C690.37 461.911 690.786 468.477 691.617 474.959C692.448 481.276 694.276 486.512 697.102 490.667C700.094 494.823 704.831 496.9 711.314 496.9C720.622 496.9 726.44 492.911 728.767 484.933C731.094 476.788 732.258 466.233 732.258 453.267V417.364H821.02V438.557C821.02 466.482 817.53 489.919 810.548 508.868C803.733 527.651 792.098 541.863 775.642 551.504C759.352 560.979 737.078 565.716 708.821 565.716ZM689.871 338.575H732.258V288.209C732.258 274.746 730.596 265.105 727.271 259.287C723.947 253.303 718.96 250.311 712.311 250.311C705.164 250.311 699.595 253.137 695.606 258.788C691.783 264.44 689.871 274.247 689.871 288.209V338.575Z" fill="url(#paint0_linear_13_96)"/>
</g>
<defs>
<linearGradient id="paint0_linear_13_96" x1="0.405273" y1="283.351" x2="1987.41" y2="283.351" gradientUnits="userSpaceOnUse">
<stop stop-color="#6366F1"/>
<stop offset="0.5" stop-color="#7761F4"/>
<stop offset="1" stop-color="#D946EF"/>
</linearGradient>
<clipPath id="clip0_13_96">
<rect width="2000" height="565.875" fill="white" transform="translate(0.405273 0.381836)"/>
</clipPath>
</defs>
</svg>
