<svg width="2001" height="568" viewBox="0 0 2001 568" fill="none" xmlns="http://www.w3.org/2000/svg">
<g clip-path="url(#clip0_13_164)">
<rect width="2000" height="567.1" transform="translate(0.736328 0.381836)" fill="white"/>
<path fill-rule="evenodd" clip-rule="evenodd" d="M564.693 564.688V-0.350586H471.991V370.301L410.74 163.429H314.443V564.423H407.144V344.087L471.991 564.688H473.214H564.693ZM-0.345703 563.849H93.2388V465.63H-0.345703V563.849ZM157.644 330.285V563.849H250.346V330.285H157.644ZM1014.62 165.41V90.6714H1104.41V165.41H1014.62ZM1014.62 564.687V188.484H1104.41V564.687H1014.62ZM1395.84 165.411V90.6719H1485.62V165.411H1395.84ZM1395.84 564.688V188.485H1485.62V564.688H1395.84ZM1810.17 559.171C1820.37 565.524 1834.16 568.701 1851.55 568.701C1867.27 568.701 1879.22 564.772 1887.41 556.913C1895.77 549.055 1902.46 538.354 1907.48 524.811V564.688H1998.77V123.276H1907.48V228.613C1902.13 214.736 1894.52 203.951 1884.65 196.26C1874.96 188.401 1861 184.472 1842.77 184.472C1818.19 184.472 1800.72 193.417 1790.35 211.308C1780.15 229.199 1775.05 252.607 1775.05 281.533V445.056C1775.05 462.277 1775.81 478.412 1777.31 493.46C1778.98 508.509 1782.33 521.634 1787.34 532.836C1792.36 544.039 1799.97 552.817 1810.17 559.171ZM1902.96 488.194C1900.12 495.049 1894.44 498.477 1885.91 498.477C1871.53 498.477 1864.34 482.76 1864.34 451.326V293.07C1864.34 283.372 1865.59 274.427 1868.1 266.234C1870.61 258.041 1876.71 253.944 1886.41 253.944C1895.27 253.944 1900.96 258.292 1903.46 266.986C1906.14 275.513 1907.48 284.208 1907.48 293.07V451.326C1907.48 469.049 1905.97 481.338 1902.96 488.194ZM1521.24 188.484V564.688H1611.02V300.091C1611.02 293.069 1611.44 286.047 1612.28 279.024C1613.11 271.834 1615.12 265.899 1618.3 261.217C1621.64 256.368 1626.74 253.944 1633.6 253.944C1640.95 253.944 1646.14 257.121 1649.15 263.474C1652.16 269.661 1653.66 276.432 1653.66 283.789V564.688H1742.19V274.51C1742.19 246.587 1736.26 224.6 1724.39 208.549C1712.68 192.497 1693.79 184.472 1667.71 184.472C1651.49 184.472 1638.78 189.571 1629.58 199.771C1620.55 209.803 1614.37 222.008 1611.02 236.388V188.484H1521.24ZM1141.53 123.276V564.688H1229.31V364.548H1270.94V564.688H1358.72V123.276H1270.94V281.03H1229.31V123.276H1141.53ZM886.205 553.402C894.733 563.601 911.118 568.701 935.363 568.701C946.231 568.701 956.932 567.697 967.465 565.691C977.999 563.852 984.269 562.598 986.275 561.929V500.733C983.099 501.402 979.504 501.736 975.491 501.736C969.806 501.736 965.96 500.482 963.954 497.974C961.948 495.466 960.944 491.119 960.944 484.933V271.5H986.275V203.031H960.944V123.276H873.665V203.031H848.334V271.5H873.665V506C873.665 527.235 877.845 543.035 886.205 553.402ZM712.653 568.7C685.901 568.7 664.583 563.684 648.699 553.652C632.815 543.62 621.445 529.157 614.59 510.264C607.735 491.37 604.307 468.63 604.307 442.045V290.812C604.307 255.867 614.339 229.449 634.403 211.558C654.467 193.501 682.056 184.472 717.168 184.472C789.399 184.472 825.514 219.918 825.514 290.812V318.149C825.514 351.255 825.18 373.493 824.511 384.862H694.094V457.595C694.094 464.283 694.512 470.888 695.348 477.408C696.184 483.762 698.023 489.029 700.866 493.209C703.875 497.389 708.641 499.479 715.161 499.479C724.525 499.479 730.377 495.466 732.718 487.441C735.058 479.248 736.229 468.63 736.229 455.589V419.473H825.514V440.791C825.514 468.881 822.003 492.457 814.981 511.518C808.125 530.411 796.421 544.707 779.868 554.405C763.483 563.935 741.078 568.7 712.653 568.7ZM693.592 340.22H736.229V289.558C736.229 276.014 734.557 266.317 731.213 260.465C727.869 254.445 722.853 251.436 716.165 251.436C708.975 251.436 703.374 254.278 699.361 259.963C695.515 265.648 693.592 275.513 693.592 289.558V340.22Z" fill="black"/>
</g>
<defs>
<clipPath id="clip0_13_164">
<rect width="2000" height="567.1" fill="white" transform="translate(0.736328 0.381836)"/>
<linearGradient id="grad1" x1="0%" x2="100%" y1="0%" y2="0%">
      <stop offset="0%" stop-color="yellow" />
      <stop offset="100%" stop-color="red" />
    </linearGradient>
</clipPath>
</defs>
</svg>
