<svg width="2001" height="570" viewBox="0 0 2001 570" fill="none" xmlns="http://www.w3.org/2000/svg">
<path fill-rule="evenodd" clip-rule="evenodd" d="M565.351 566.303V0.856079H472.582V371.775L411.287 164.754H314.92V566.038H407.688V345.542L472.582 566.303H473.806H565.351ZM-0.0957031 565.463H93.5564V467.173H-0.0957031V565.463ZM158.008 331.731V565.463H250.777V331.731H158.008ZM1015.6 166.737V91.9437H1105.45V166.737H1015.6ZM1015.6 566.302V189.827H1105.45V566.302H1015.6ZM1397.09 166.737V91.9442H1486.94V166.737H1397.09ZM1397.09 566.303V189.828H1486.94V566.303H1397.09ZM1811.72 560.781C1821.93 567.139 1835.73 570.318 1853.14 570.318C1868.86 570.318 1880.83 566.386 1889.03 558.522C1897.39 550.658 1904.08 539.949 1909.1 526.396V566.303H2000.46V124.572H1909.1V229.985C1903.75 216.097 1896.14 205.305 1886.26 197.608C1876.56 189.744 1862.59 185.812 1844.35 185.812C1819.75 185.812 1802.27 194.764 1791.9 212.667C1781.69 230.571 1776.59 253.996 1776.59 282.942V446.584C1776.59 463.818 1777.34 479.964 1778.84 495.023C1780.52 510.082 1783.86 523.217 1788.88 534.428C1793.9 545.638 1801.52 554.423 1811.72 560.781ZM1904.59 489.753C1901.74 496.613 1896.05 500.043 1887.52 500.043C1873.13 500.043 1865.94 484.315 1865.94 452.858V294.488C1865.94 284.783 1867.19 275.831 1869.7 267.632C1872.21 259.434 1878.32 255.334 1888.02 255.334C1896.89 255.334 1902.58 259.685 1905.09 268.385C1907.77 276.919 1909.1 285.62 1909.1 294.488V452.858C1909.1 470.594 1907.6 482.893 1904.59 489.753ZM1522.58 189.827V566.302H1612.43V301.515C1612.43 294.487 1612.85 287.46 1613.69 280.432C1614.52 273.237 1616.53 267.297 1619.71 262.612C1623.06 257.76 1628.16 255.334 1635.02 255.334C1642.38 255.334 1647.57 258.513 1650.58 264.871C1653.59 271.062 1655.1 277.839 1655.1 285.201V566.302H1743.7V275.914C1743.7 247.972 1737.76 225.969 1725.88 209.906C1714.16 193.843 1695.26 185.811 1669.16 185.811C1652.92 185.811 1640.21 190.915 1631.01 201.121C1621.97 211.161 1615.78 223.375 1612.43 237.765V189.827H1522.58ZM1142.6 124.572V566.302H1230.44V366.018H1272.1V566.302H1359.95V124.572H1272.1V282.44H1230.44V124.572H1142.6ZM887.092 555.008C895.626 565.215 912.023 570.318 936.285 570.318C947.161 570.318 957.87 569.314 968.411 567.306C978.952 565.466 985.227 564.211 987.235 563.541V502.302C984.055 502.971 980.458 503.305 976.442 503.305C970.753 503.305 966.905 502.051 964.897 499.541C962.889 497.031 961.885 492.681 961.885 486.49V272.903H987.235V204.384H961.885V124.572H874.543V204.384H849.194V272.903H874.543V507.572C874.543 528.822 878.726 544.634 887.092 555.008ZM713.415 570.318C686.643 570.318 665.31 565.298 649.414 555.259C633.519 545.219 622.141 530.746 615.281 511.839C608.42 492.931 604.99 470.175 604.99 443.571V292.228C604.99 257.258 615.03 230.821 635.108 212.918C655.187 194.847 682.795 185.811 717.933 185.811C790.216 185.811 826.357 221.284 826.357 292.228V319.585C826.357 352.715 826.023 374.969 825.354 386.347H694.842V459.132C694.842 465.825 695.261 472.434 696.097 478.96C696.934 485.318 698.774 490.589 701.619 494.772C704.631 498.955 709.399 501.046 715.925 501.046C725.295 501.046 731.151 497.031 733.494 488.999C735.836 480.8 737.007 470.175 737.007 457.124V420.983H826.357V442.316C826.357 470.426 822.844 494.019 815.816 513.094C808.956 532.001 797.243 546.307 780.679 556.012C764.281 565.549 741.86 570.318 713.415 570.318ZM694.34 341.672H737.007V290.973C737.007 277.42 735.334 267.716 731.988 261.859C728.641 255.836 723.622 252.824 716.929 252.824C709.734 252.824 704.129 255.668 700.113 261.357C696.264 267.046 694.34 276.918 694.34 290.973V341.672Z" fill="white"/>
</svg>
